<svg xmlns="http://www.w3.org/2000/svg" xmlns:xlink="http://www.w3.org/1999/xlink" style="enable-background:new 0 0 2876 225" id="Layer_1" x="0" y="0" version="1.1" viewBox="0 0 2876 225" xml:space="preserve"><style type="text/css">.st0{fill:none;stroke:#666667;stroke-width:.7174;stroke-miterlimit:10}.st1{stroke-width:1.4139}.st1,.st2,.st3{fill:none;stroke:#666667;stroke-miterlimit:10}.st3{stroke-width:1.4348}.st10{stroke:#666667;stroke-miterlimit:10}.st4{fill:#666667}.st4,.st5,.st6,.st7,.st8,.st9{stroke:#666667;stroke-miterlimit:10}.st5,.st6{fill:none;stroke-width:1.175}.st6{stroke-width:1.507}.st7,.st8{fill:#666667;stroke-width:1.3988}.st8{fill:none}.st10,.st9{stroke-width:1.263}.st9{fill:#666667}.st10{fill:none}.st11{stroke:#666667;stroke-width:1.507;stroke-miterlimit:10}.st11,.st12{fill:#666667}.st12,.st13,.st14,.st15,.st16{stroke:#666667;stroke-miterlimit:10}.st12{stroke-width:1.4348}.st13{fill:none;stroke-width:.6994}.st14{fill:#dbdbda;stroke-width:1.3988}.st15{fill:#9b9b9b;stroke-width:1.8}.st16,.st17{fill:#dbdbda;stroke-width:.6315}.st17{stroke-width:.7535}.st17,.st18,.st19,.st20,.st21{stroke:#666667;stroke-miterlimit:10}.st18{fill:none;stroke-width:.5}.st19{fill:#dbdbda}.st20{fill:#666667;stroke-width:1.175}.st21{fill:none;stroke-width:1.3245}.st22{fill:#666667}.st23{stroke-width:1.8347}.st23,.st24,.st25{fill:none;stroke:#666667;stroke-miterlimit:10}.st24{stroke-width:1.8}.st25{stroke-width:.75}</style><polyline points="722.4 271.4 674.7 129.1 730 199.9" class="st0"/><polyline points="1096 85.9 1096.6 179 1053.3 90.3" class="st1"/><polyline points="436.6 37.2 431.5 141.5 377.7 37.7" class="st2"/><polyline points="525.7 220.1 491 166.9 431 142" class="st2"/><line x1="627.5" x2="730.5" y1="228.3" y2="200.1" class="st3"/><circle cx="431" cy="141.5" r="2.8" class="st4"/><circle cx="2449.9" cy="173.7" r="4.3" class="st5"/><circle cx="893.4" cy="183.3" r="5.3" class="st3"/><circle cx="534" cy="131.1" r="4.9" class="st6"/><polyline points="310.5 234.5 431 141.5 530.3 132.4" class="st2"/><line x1="2275.7" x2="2446.3" y1="108.6" y2="172.7" class="st5"/><circle cx="2747.7" cy="182.4" r="3.4" class="st7"/><line x1="2745.6" x2="2601.9" y1="180" y2="17.4" class="st8"/><circle cx="1097.2" cy="179.8" r="2.3" class="st9"/><circle cx="1022.4" cy="129.8" r="4.1" class="st10"/><polyline points="1260.5 237.1 1097.2 179.8 1025.3 131.5" class="st10"/><line x1="624.3" x2="671.3" y1="228.3" y2="133.7" class="st3"/><circle cx="492.1" cy="167.8" r="3.4" class="st11"/><circle cx="730.7" cy="200" r="3.2" class="st12"/><polyline points="795.1 212.2 674.3 130.2 887.5 183.3" class="st0"/><circle cx="673.7" cy="129.3" r="5.3" class="st12"/><circle cx="1041.9" cy="56.6" r="4.1" class="st10"/><line x1="2643" x2="2745.8" y1="254.5" y2="183.3" class="st13"/><polyline points="2801.3 103.5 2747.5 182.9 2747.7 245.2" class="st13"/><line x1="2751.2" x2="2819.6" y1="182.3" y2="185" class="st14"/><line x1="1097.2" x2="1229.5" y1="179.8" y2="92.2" class="st15"/><line x1="1039.5" x2="1095.2" y1="252.2" y2="180.3" class="st16"/><line x1="1074.1" x2="1096.3" y1="255" y2="180.3" class="st16"/><line x1="1115.7" x2="1097.7" y1="250.8" y2="182.1" class="st16"/><line x1="489.8" x2="408.6" y1="169.6" y2="236.1" class="st17"/><line x1="351.8" x2="488.8" y1="222.2" y2="167.8" class="st17"/><line x1="456.1" x2="491.4" y1="228.1" y2="169.6" class="st17"/><line x1="497.3" x2="492.1" y1="223.5" y2="167.8" class="st17"/><polyline points="2238.8 232.9 2103 131.8 2169.4 230.6" class="st2"/><polyline points="2128.4 226.4 2104.4 131.7 2097.5 232.9" class="st2"/><circle cx="2103.6" cy="130.8" r="5.9" class="st4"/><polyline points="2302.4 27.1 2397.5 70.7 2344.7 19.5" class="st18"/><polyline points="2370 16.8 2396.8 70.9 2387.9 8.9" class="st18"/><circle cx="2397.3" cy="71.4" r="3.7" class="st4"/><path d="M431.1,330.8" class="st19"/><circle cx="122.4" cy="104.9" r="4.9" class="st4"/><circle cx="291.9" cy="124.1" r="5.5" class="st4"/><circle cx="84.5" cy="112" r="3.3" class="st4"/><circle cx="238.2" cy="165.4" r="7.7" class="st4"/><circle cx="2273.8" cy="108.6" r="7.5" class="st20"/><circle cx="65.9" cy="184.1" r="8.5" class="st21"/><circle cx="21.5" cy="198.2" r="4.7" class="st2"/><circle cx="21.5" cy="85.8" r="5.5" class="st2"/><line x1="73.8" x2="231.2" y1="183.1" y2="166.1" class="st2"/><line x1="61.2" x2="24.2" y1="175.8" y2="91" class="st2"/><line x1="122.2" x2="232.3" y1="104.1" y2="159.1" class="st2"/><line x1="241.9" x2="288.5" y1="158" y2="125.8" class="st2"/><path d="M124.8,104.8" class="st2"/><line x1="69.3" x2="80.4" y1="176.5" y2="159.5" class="st2"/><line x1="56.8" x2="27.2" y1="186.9" y2="195.7" class="st2"/><line x1="67.2" x2="84.8" y1="176.6" y2="112.9" class="st2"/><line x1="237.9" x2="274.1" y1="164.9" y2="208.5" class="st2"/><line x1="212.7" x2="236.4" y1="212.2" y2="164.2" class="st2"/><circle cx="1299.8" cy="158.2" r="7.3" class="st9"/><circle cx="1441.7" cy="157.9" r="8.1" class="st10"/><circle cx="1223.9" cy="133.8" r="5.2" class="st9"/><circle cx="1326.5" cy="115.2" r="5.2" class="st10"/><circle cx="1460.4" cy="109.8" r="5.2" class="st10"/><line x1="1433.4" x2="1305.1" y1="157.5" y2="156.8" class="st2"/><line x1="1227.5" x2="1291.3" y1="136" y2="157.2" class="st2"/><line x1="1331.5" x2="1435.5" y1="115.6" y2="152.6" class="st2"/><line x1="1303" x2="1324.1" y1="152.6" y2="118.4" class="st2"/><path d="M1324.1,110.3" class="st10"/><line x1="1444" x2="1459.5" y1="148.8" y2="114" class="st2"/><line x1="1298.7" x2="1257.9" y1="157" y2="222.6" class="st2"/><line x1="1446.1" x2="1470.8" y1="163.4" y2="236.1" class="st2"/><circle cx="1843" cy="162.5" r="6.7" class="st22"/><circle cx="1945.2" cy="200.7" r="7.4" class="st2"/><circle cx="1713.4" cy="162.3" r="7.4" class="st2"/><circle cx="1607.5" cy="165.7" r="7.4" class="st2"/><circle cx="1857.1" cy="84.8" r="4.8" class="st2"/><circle cx="1818.6" cy="123.2" r="4.8" class="st2"/><circle cx="1609.6" cy="122.2" r="4.8" class="st2"/><line x1="1821.7" x2="1853.4" y1="119" y2="88.2" class="st23"/><line x1="1814" x2="1719.1" y1="123.6" y2="157.4" class="st23"/><line x1="1840" x2="1820.7" y1="157.4" y2="126.2" class="st2"/><line x1="1706.7" x2="1613.8" y1="159.1" y2="166.4" class="st23"/><line x1="1600.5" x2="1545.2" y1="167.3" y2="183.6" class="st23"/><line x1="1607" x2="1609.1" y1="159.8" y2="127.2" class="st2"/><line x1="1711.4" x2="1697.2" y1="154" y2="122.2" class="st2"/><line x1="1842" x2="1845.2" y1="161.5" y2="229" class="st2"/><line x1="1897.4" x2="1847.1" y1="237.6" y2="167.2" class="st2"/><line x1="1710.1" x2="1676.6" y1="168.5" y2="225.8" class="st2"/><line x1="1844.9" x2="1937.5" y1="160.2" y2="197.8" class="st2"/><polyline points="2537.4 49.6 2532.7 146.6 2482.6 50.1" class="st2"/><polyline points="2620.3 219.8 2588 170.3 2532.2 147.2" class="st2"/><circle cx="2532.2" cy="146.6" r="2.6" class="st4"/><polyline points="2420 233.2 2532.2 146.6 2624.5 138.3" class="st24"/><circle cx="2589" cy="171.2" r="3.1" class="st4"/><line x1="2586.8" x2="2511.3" y1="172.8" y2="234.7" class="st19"/><line x1="2458.5" x2="2585.9" y1="221.7" y2="171.2" class="st19"/><line x1="2555.5" x2="2588.4" y1="227.2" y2="172.8" class="st19"/><line x1="2593.9" x2="2589" y1="222.9" y2="171.2" class="st19"/><circle cx="739.5" cy="70.2" r="6.4" class="st2"/><circle cx="748.5" cy="110" r="4.1" class="st2"/><circle cx="789.3" cy="109.9" r="3.2" class="st2"/><line x1="747.9" x2="741" y1="106.4" y2="77.3" class="st2"/><line x1="788.1" x2="744.6" y1="107.1" y2="74.5" class="st25"/><line x1="739.3" x2="740.4" y1="63" y2="37.4" class="st25"/><line x1="780.4" x2="744.7" y1="37" y2="67.1" class="st25"/></svg>