<svg xmlns="http://www.w3.org/2000/svg" xmlns:xlink="http://www.w3.org/1999/xlink" style="enable-background:new 0 0 2855 86" id="Layer_1" x="0" y="0" version="1.1" viewBox="0 0 2855 86" xml:space="preserve"><style type="text/css">.st0{stroke:#666667;stroke-width:.9174;stroke-miterlimit:10}.st0,.st1,.st2{fill:none}.st1,.st2,.st3{stroke:#666667;stroke-miterlimit:10}.st1{stroke-width:.9756}.st2,.st3{stroke-width:1.9511}.st3{fill:#666667}.st4{stroke-width:1.5341;stroke:#666667;stroke-miterlimit:10}.st4,.st5{fill:none}.st10,.st11,.st12,.st13,.st5,.st6{stroke:#666667;stroke-miterlimit:10}.st6{fill:#666667}.st6,.st7{stroke-width:1.8347}.st7,.st8,.st9{stroke:#666667;stroke-miterlimit:10}.st7{fill:none}.st8{fill:#666667}.st8,.st9{stroke-width:1.5918}.st10,.st11,.st12,.st9{fill:#dbdbda}.st10{stroke-width:1.8347}.st11{stroke-width:.9174}.st12{stroke-width:.9756}.st13{fill:#666667;stroke-width:1.5341}.st14{stroke:#666667;stroke-width:.8522;stroke-miterlimit:10}.st14,.st15,.st16{fill:none}.st15,.st16,.st17,.st18,.st19,.st20{stroke:#666667;stroke-miterlimit:10}.st15{stroke-width:.75}.st16{stroke-width:1.7043}.st17{fill:#dbdbda;stroke-width:.8522}.st18{stroke-width:1.7323}.st18,.st19,.st20{fill:none}.st19{stroke-width:1.0722}.st20{stroke-width:1.83}.st21{stroke-width:1.1823}.st21,.st22,.st23,.st24{fill:none;stroke:#666667;stroke-miterlimit:10}.st22{stroke-width:.4575;stroke-dasharray:.915,1.83}.st23{stroke-width:.8661}.st24{stroke-width:.5934}.st25{fill:#dddddc;stroke:#666667;stroke-miterlimit:10}.st25,.st26,.st27{stroke-width:1.1868}.st26,.st27,.st28,.st29,.st30{stroke:#666667;stroke-miterlimit:10}.st26{fill:none}.st27,.st28{fill:#dbdbda}.st28{stroke-width:.5934}.st29,.st30{fill:none;stroke-width:2}.st30{stroke-width:1.2921}</style><polyline points="1770.8 71.7 1774.1 42 1785.2 58.9" class="st0"/><polyline points="1353.5 64.2 1345.7 37.7 1393.9 45.7" class="st1"/><polyline points="1201.6 18 1260.6 39 1344.7 36.2" class="st2"/><circle cx="1345" cy="36.8" r="3.6" class="st3"/><circle cx="1038.5" cy="54.3" r="5.6" class="st4"/><polyline points="1447.6 -114.4 1345 36.8 1307 55.3" class="st5"/><circle cx="1773.4" cy="40.8" r="3.4" class="st6"/><circle cx="1855.8" cy="60.1" r="5.9" class="st7"/><circle cx="1703.6" cy="52.3" r="4.1" class="st7"/><polyline points="1543.8 -61.8 1773.4 40.8 1850.7 58.4" class="st7"/><polyline points="822 -46.8 884.8 -102 1035.2 50.2" class="st4"/><circle cx="1258.8" cy="38.6" r="4.4" class="st3"/><line x1="817.3" x2="1032.3" y1="-41.5" y2="53.2" class="st5"/><circle cx="2007.8" cy="42.6" r="4" class="st8"/><line x1="2007.8" x2="2091.7" y1="42.6" y2="1.7" class="st9"/><line x1="2033.1" x2="2009.6" y1="-8" y2="39" class="st9"/><line x1="1963.8" x2="2005.6" y1="0" y2="40.4" class="st9"/><line x1="1773.4" x2="1707.9" y1="40.8" y2="51.2" class="st10"/><line x1="1865.5" x2="1776.2" y1="-57.1" y2="40.3" class="st11"/><line x1="1815.9" x2="1774.7" y1="-65.4" y2="40.1" class="st11"/><line x1="1755.1" x2="1772.9" y1="-64.3" y2="37.4" class="st11"/><line x1="1260.6" x2="1320.6" y1="35.2" y2="-86.7" class="st12"/><line x1="1395" x2="1262.8" y1="-100.8" y2="36.8" class="st12"/><line x1="1268.9" x2="1258.6" y1="-51.8" y2="36.1" class="st12"/><line x1="1222.8" x2="1258.8" y1="-24.2" y2="38.6" class="st12"/><polyline points="659.6 -84.6 722.2 63.2 646.1 -20.1" class="st5"/><polyline points="592.4 -10.7 722.6 62 462.7 -9" class="st5"/><circle cx="723.2" cy="62.9" r="5.6" class="st13"/><circle cx="1302.9" cy="57.2" r="4.3" class="st2"/><polyline points="2270.7 33.1 2271.5 57.1 2277.3 68.3" class="st14"/><polyline points="2151.3 -12.4 2200.3 40.2 2272 56.4" class="st15"/><circle cx="2272.1" cy="57" r="3.1" class="st8"/><circle cx="2216.3" cy="64.2" r="5.5" class="st16"/><polyline points="2388.4 -70 2272.1 57 2221.5 63.2" class="st5"/><circle cx="2198.9" cy="39.5" r="3.8" class="st8"/><line x1="2201.2" x2="2278.8" y1="37" y2="-52.8" class="st17"/><line x1="2344.7" x2="2202.6" y1="-48.3" y2="38.8" class="st17"/><line x1="2227.4" x2="2199.3" y1="-34.7" y2="37.3" class="st17"/><line x1="2182.3" x2="2198.9" y1="-21.6" y2="39.5" class="st17"/><circle cx="2447.4" cy="24.2" r="4.2" class="st8"/><line x1="2449.7" x2="2474.4" y1="20.9" y2="-17.9" class="st18"/><circle cx="2409.5" cy="15.6" r="5.6" class="st18"/><circle cx="2473.7" cy="58.7" r="3.2" class="st8"/><line x1="2475.7" x2="2414.6" y1="59.4" y2="18.9" class="st19"/><circle cx="2662.9" cy="21" r="3.3" class="st8"/><circle cx="2559.8" cy="22.1" r="5.9" class="st20"/><circle cx="2692.2" cy="38.3" r="2.8" class="st15"/><circle cx="2552.9" cy="57.1" r="3.8" class="st21"/><line x1="2565.9" x2="2658.8" y1="22.3" y2="21.2" class="st19"/><line x1="2666.2" x2="2690.3" y1="21.9" y2="37" class="st15"/><path d="M2645.6,55.1" class="st22"/><line x1="2553.4" x2="2476.4" y1="24.1" y2="57.2" class="st19"/><line x1="2558.5" x2="2553.5" y1="28.4" y2="54" class="st15"/><line x1="2558.8" x2="2545.3" y1="16.9" y2="-22.2" class="st20"/><line x1="2473.6" x2="2489.9" y1="58" y2="72.8" class="st23"/><line x1="2459.6" x2="2472" y1="61.6" y2="59.2" class="st23"/><line x1="2563.7" x2="2590.9" y1="16.9" y2="-3" class="st23"/><line x1="2556.2" x2="2563.7" y1="58" y2="60.8" class="st23"/><polyline points="361.4 62.1 363.5 42.8 370.7 53.8" class="st24"/><circle cx="363.1" cy="42.1" r="2.2" class="st25"/><circle cx="416.4" cy="54.6" r="3.8" class="st26"/><circle cx="317.9" cy="49.5" r="2.6" class="st26"/><polyline points="214.6 -24.3 363.1 42.1 413.1 53.5" class="st26"/><line x1="363.1" x2="320.7" y1="42.1" y2="48.8" class="st27"/><line x1="422.7" x2="364.9" y1="-21.3" y2="41.7" class="st28"/><line x1="390.5" x2="363.9" y1="-26.6" y2="41.7" class="st28"/><line x1="351.3" x2="362.8" y1="-25.9" y2="39.9" class="st28"/><circle cx="140.1" cy="24.8" r="6.4" class="st29"/><circle cx="149.1" cy="64.6" r="4.1" class="st30"/><line x1="148.4" x2="141.6" y1="61" y2="31.8" class="st5"/><line x1="188.6" x2="145.2" y1="61.7" y2="29" class="st5"/><line x1="138.6" x2="139.7" y1="16.1" y2="-9.6" class="st29"/><line x1="181" x2="145.3" y1="-8.4" y2="21.7" class="st29"/></svg>