<svg xmlns="http://www.w3.org/2000/svg" xmlns:xlink="http://www.w3.org/1999/xlink" id="Layer_1" x="0" y="0" version="1.1" viewBox="0 0 719.1 407" xml:space="preserve" style="enable-background:new 0 0 719.1 407"><style type="text/css">.st0{display:none}.st1,.st2{fill:none;stroke-miterlimit:10}.st1{display:inline;stroke:#a5a5a5}.st2{stroke:#1b557b}</style><g class="st0"><polygon points="362.1 28.3 716.3 298.7 478.5 158.9" class="st1"/><polyline points="474.3 159.7 386.4 217.5 171.2 50.1 322.8 63.5 238.5 165 167.1 48.4 333.7 .7 323.6 59.3 388.9 215.8 558.9 176.5 564.7 -32" class="st1"/><polygon points="712.9 298.7 465.1 261.3 450 311" class="st1"/><polygon points="716.3 298.7 688.4 529.2 643.7 505.2" class="st1"/><polyline points="712.9 298.7 575.1 508.6 688.4 529.2" class="st1"/><line x1="465.1" x2="575.1" y1="261.3" y2="508.6" class="st1"/><line x1="447.8" x2="643.7" y1="310.4" y2="505.2" class="st1"/><polygon points="668.3 426 504.2 379.1 512.5 436.6" class="st1"/><polygon points="512.5 436.6 449.5 595.1 669.4 428.2 603 549.9" class="st1"/><polygon points="573.4 506.9 339.5 255.7 206.7 376.8" class="st1"/><polyline points="474 407.5 359.6 538.1 373.6 639.2 390.3 690 195 882.5 122.4 676.6 369.7 640.3" class="st1"/><line x1="446.1" x2="359.6" y1="592.3" y2="536.5" class="st1"/><path d="M287.6,620.2" class="st1"/><polyline points="120.2 677.1 -80.2 678.2 -4.3 583.9 121.3 673.8 474 407.5 272 330.5 278.7 554.9 449.5 595.1" class="st1"/><polyline points="497.5 632.5 389.2 687.7 630.3 754.7 495.8 631.4" class="st1"/><polyline points="371.9 640.3 263.1 884.8 150.3 906 124.6 674.9 359.6 538.1" class="st1"/><polyline points="385.8 687.2 124.6 674.9 263.1 884.8 389.2 687.7" class="st1"/></g><g id="Layer_3"><g><g><polygon points="716.8 297.9 361.6 26.5 477 158.7 388.8 216.7" class="st2"/><polyline points="589.2 405.7 449 311.2 466.5 260.1 718.5 298.7 703.2 405.4" class="st2"/><line x1="718.4" x2="676.6" y1="298.8" y2="405.6" class="st2"/><polyline points="640.2 405.7 717.9 299 449 311.2" class="st2"/><polygon points="388.5 216.1 325.2 67.1 332.2 .7 168.6 48.9 231.5 172.7 309.8 78.3" class="st2"/><line x1="170.7" x2="325.2" y1="48.2" y2="66.9" class="st2"/><line x1="309.8" x2="168.6" y1="78.1" y2="48.9" class="st2"/><line x1="388.1" x2="168.4" y1="216.6" y2="48.8" class="st2"/><line x1="477" x2="714.7" y1="158.7" y2="297.2" class="st2"/><polyline points="596 405.6 504.9 379 508.8 406" class="st2"/><polyline points="289.4 405.4 204.2 375.5 339.2 256.6 479.3 406" class="st2"/><path d="M472.8,407" class="st2"/><line x1="272" x2="470.1" y1="330.2" y2="405.7" class="st2"/><polyline points="272.1 330.7 274.4 403.6 274.5 406" class="st2"/><polyline points="59.5 405.5 48.3 378.3 126.1 405.8" class="st2"/><line x1=".2" x2="48.3" y1="405.5" y2="378.3" class="st2"/></g></g></g></svg>